<?xml version="1.0" encoding="UTF-8" standalone="no"?>
<!-- Created with Inkscape (http://www.inkscape.org/) -->

<svg
   version="1.1"
   id="svg2"
   width="298.22266"
   height="110.22653"
   viewBox="0 0 298.22266 110.22653"
   sodipodi:docname="ncbr_logo_white.svg"
   inkscape:version="1.2.1 (9c6d41e410, 2022-07-14)"
   xmlns:inkscape="http://www.inkscape.org/namespaces/inkscape"
   xmlns:sodipodi="http://sodipodi.sourceforge.net/DTD/sodipodi-0.dtd"
   xmlns="http://www.w3.org/2000/svg"
   xmlns:svg="http://www.w3.org/2000/svg">
  <sodipodi:namedview
     id="namedview1296"
     pagecolor="#ffffff"
     bordercolor="#666666"
     borderopacity="1.0"
     inkscape:showpageshadow="2"
     inkscape:pageopacity="0.0"
     inkscape:pagecheckerboard="0"
     inkscape:deskcolor="#d1d1d1"
     showgrid="false"
     inkscape:zoom="4.1177287"
     inkscape:cx="149.23276"
     inkscape:cy="55.370331"
     inkscape:window-width="2560"
     inkscape:window-height="1375"
     inkscape:window-x="0"
     inkscape:window-y="0"
     inkscape:window-maximized="1"
     inkscape:current-layer="svg2" />
  <defs
     id="defs6">
    <clipPath
       clipPathUnits="userSpaceOnUse"
       id="clipPath20">
      <path
         d="M 0,82.67 H 223.667 V 0 H 0 Z"
         id="path18" />
    </clipPath>
  </defs>
  <g
     id="g10"
     transform="matrix(1.3333333,0,0,-1.3333333,0,110.22653)"
     style="fill:#ffffff">
    <path
       d="m 24.832,68.511 h 3.52 V 46.113 h -3.52 z m -1.312,0 h 1.184 L 22.528,46.112 h -1.184 z m -5.664,0 h 1.185 l 2.175,-22.399 h -1.184 z m -3.615,0 h 3.488 V 46.113 h -3.488 z"
       style="fill:#ffffff;fill-opacity:1;fill-rule:nonzero;stroke:none"
       id="path12" />
    <g
       id="g14"
       style="fill:#ffffff">
      <g
         id="g16"
         clip-path="url(#clipPath20)"
         style="fill:#ffffff">
        <g
           id="g22"
           transform="translate(41.5684,68.5107)"
           style="fill:#ffffff">
          <path
             d="m 0,0 v -17.119 c 0,-1.216 1.088,-2.08 2.112,-2.08 1.024,0 2.112,0.864 2.112,2.08 V 0 h 3.519 v -17.247 c 0,-3.007 -2.72,-5.343 -5.631,-5.343 -2.912,0 -5.632,2.336 -5.632,5.343 L -3.52,0 Z"
             style="fill:#ffffff;fill-opacity:1;fill-rule:nonzero;stroke:none"
             id="path24" />
        </g>
        <path
           d="M 72,46.112 H 68.48 V 68.51 H 72 Z M 65.024,68.511 68.352,46.112 H 67.136 L 63.808,68.511 Z M 63.68,46.112 H 60.16 V 68.51 h 3.52 z"
           style="fill:#ffffff;fill-opacity:1;fill-rule:nonzero;stroke:none"
           id="path26" />
        <g
           id="g28"
           transform="translate(86.688,47.3603)"
           style="fill:#ffffff">
          <path
             d="M 0,0 V 19.902 H -3.008 V 21.15 H 6.56 V 19.902 H 3.52 V 0 H 6.56 V -1.248 H -3.008 V 0 Z"
             style="fill:#ffffff;fill-opacity:1;fill-rule:nonzero;stroke:none"
             id="path30" />
        </g>
        <g
           id="g32"
           transform="translate(15.7446,19.2637)"
           style="fill:#ffffff">
          <path
             d="M 0,0 V 0.769 H 1.728 V 0.032 c 0,-2.08 1.824,-3.712 3.839,-3.712 1.984,0 3.776,1.632 3.776,3.712 V 1.344 C 9.343,4 7.167,4.736 5.12,5.184 3.168,5.632 0,6.815 0,10.56 v 1.536 c 0,3.071 2.464,5.343 5.536,5.343 3.071,0 5.535,-2.272 5.535,-5.343 V 11.264 H 9.343 v 0.799 c 0,2.081 -1.823,3.712 -3.807,3.712 -2.016,0 -3.808,-1.631 -3.808,-3.712 V 10.56 C 1.728,7.936 3.936,7.2 5.888,6.752 8,6.271 11.071,5.023 11.071,1.376 V 0 c 0,-3.168 -2.464,-5.344 -5.535,-5.344 C 2.464,-5.344 0,-3.168 0,0"
             style="fill:#ffffff;fill-opacity:1;fill-rule:nonzero;stroke:none"
             id="path34" />
        </g>
        <g
           id="g36"
           transform="translate(38.3687,19.2637)"
           style="fill:#ffffff">
          <path
             d="m 0,0 v 12.096 c 0,3.071 2.496,5.343 5.536,5.343 3.071,0 5.535,-2.272 5.535,-5.343 V 11.264 H 9.343 v 0.799 c 0,2.081 -1.823,3.712 -3.807,3.712 -2.048,0 -3.808,-1.631 -3.808,-3.712 V 0.032 c 0,-2.08 1.76,-3.712 3.808,-3.712 1.984,0 3.807,1.632 3.807,3.712 v 0.737 h 1.728 V 0 c 0,-3.168 -2.464,-5.344 -5.535,-5.344 C 2.496,-5.344 0,-3.168 0,0"
             style="fill:#ffffff;fill-opacity:1;fill-rule:nonzero;stroke:none"
             id="path38" />
        </g>
        <g
           id="g40"
           transform="translate(65.2163,15.2324)"
           style="fill:#ffffff">
          <path
             d="m 0,0 v 20.158 h -3.904 v 1.12 h 9.535 v -1.12 H 1.728 V 0 H 5.631 V -1.12 H -3.904 V 0 Z"
             style="fill:#ffffff;fill-opacity:1;fill-rule:nonzero;stroke:none"
             id="path42" />
        </g>
        <g
           id="g44"
           transform="translate(112.604,59.2729)"
           style="fill:#ffffff">
          <path
             d="m 0,0 -1.794,3.757 c -0.585,1.235 -1.17,2.535 -1.69,3.822 H -3.51 C -3.445,6.24 -3.406,4.901 -3.406,3.562 V 0 h -1.833 v 9.256 h 2.717 L -0.728,5.499 C -0.143,4.264 0.442,2.964 0.961,1.677 H 0.989 C 0.923,3.016 0.884,4.355 0.884,5.694 V 9.256 H 2.717 V 0 Z"
             style="fill:#ffffff;fill-opacity:1;fill-rule:nonzero;stroke:none"
             id="path46" />
        </g>
        <g
           id="g48"
           transform="translate(118.6748,66.6313)"
           style="fill:#ffffff">
          <path
             d="M 0,0 1.001,1.898 H 3.25 L 1.431,0 Z M 2.262,-4.329 C 1.872,-4.355 1.326,-4.407 0.936,-4.472 0.182,-4.602 -0.13,-4.849 -0.13,-5.382 c 0,-0.494 0.338,-0.832 0.975,-0.832 0.378,0 0.78,0.117 1.041,0.377 0.311,0.312 0.376,0.663 0.376,1.261 z m 1.756,1.17 v -2.392 c 0,-0.832 0.064,-1.366 0.181,-1.807 H 2.561 C 2.496,-7.085 2.47,-6.799 2.47,-6.474 H 2.444 c -0.494,-0.702 -1.235,-1.04 -2.145,-1.04 -1.404,0 -2.249,0.858 -2.249,2.002 0,1.079 0.649,1.807 2.56,2.106 0.495,0.078 1.237,0.156 1.652,0.182 v 0.234 c 0,0.832 -0.443,1.17 -1.079,1.17 -0.676,0 -1.066,-0.377 -1.092,-1.001 h -1.768 c 0.066,1.261 0.975,2.275 2.86,2.275 1.873,0 2.835,-0.884 2.835,-2.613"
             style="fill:#ffffff;fill-opacity:1;fill-rule:nonzero;stroke:none"
             id="path50" />
        </g>
        <g
           id="g52"
           transform="translate(128.4902,65.9033)"
           style="fill:#ffffff">
          <path
             d="m 0,0 v -1.573 c -0.208,0.039 -0.391,0.065 -0.572,0.065 -1.118,0 -1.716,-0.702 -1.716,-2.002 v -3.12 h -1.82 v 6.604 h 1.676 v -0.936 h 0.027 c 0.442,0.715 1.027,1.04 1.806,1.04 C -0.416,0.078 -0.183,0.052 0,0"
             style="fill:#ffffff;fill-opacity:1;fill-rule:nonzero;stroke:none"
             id="path54" />
        </g>
        <g
           id="g56"
           transform="translate(130.96,62.5752)"
           style="fill:#ffffff">
          <path
             d="m 0,0 c 0,-1.287 0.572,-2.106 1.469,-2.106 0.897,0 1.469,0.819 1.469,2.106 0,1.287 -0.572,2.106 -1.469,2.106 C 0.572,2.106 0,1.287 0,0 m 4.85,0 c 0,-2.145 -1.314,-3.51 -3.381,-3.51 -2.067,0 -3.38,1.365 -3.38,3.51 0,2.145 1.313,3.51 3.38,3.51 C 3.536,3.51 4.85,2.145 4.85,0"
             style="fill:#ffffff;fill-opacity:1;fill-rule:nonzero;stroke:none"
             id="path58" />
        </g>
        <g
           id="g60"
           transform="translate(138.6172,62.5752)"
           style="fill:#ffffff">
          <path
             d="m 0,0 c 0,-1.261 0.559,-2.08 1.43,-2.08 0.819,0 1.378,0.767 1.378,2.08 0,1.313 -0.559,2.08 -1.378,2.08 C 0.559,2.08 0,1.261 0,0 m 2.769,-3.302 v 0.871 H 2.743 c -0.403,-0.676 -1.131,-1.04 -1.898,-1.04 -1.664,0 -2.743,1.365 -2.743,3.471 0,2.106 1.066,3.471 2.717,3.471 0.754,0 1.469,-0.338 1.872,-0.962 h 0.026 v 3.445 h 1.82 v -9.256 z"
             style="fill:#ffffff;fill-opacity:1;fill-rule:nonzero;stroke:none"
             id="path62" />
        </g>
        <g
           id="g64"
           transform="translate(151.0195,63.3291)"
           style="fill:#ffffff">
          <path
             d="m 0,0 v -4.056 h -1.82 v 3.874 c 0,1.001 -0.443,1.456 -1.158,1.456 -0.753,0 -1.299,-0.598 -1.299,-1.794 v -3.536 h -1.821 v 6.604 h 1.703 V 1.716 h 0.027 c 0.429,0.585 1.092,0.988 1.936,0.988 C -0.949,2.704 0,1.794 0,0"
             style="fill:#ffffff;fill-opacity:1;fill-rule:nonzero;stroke:none"
             id="path66" />
        </g>
        <path
           d="m 152.722,65.877 h 1.82 v -6.604 h -1.82 z m -0.196,0.754 1.001,1.898 h 2.25 l -1.82,-1.898 z"
           style="fill:#ffffff;fill-opacity:1;fill-rule:nonzero;stroke:none"
           id="path68" />
        <g
           id="g70"
           transform="translate(165.3193,63.4199)"
           style="fill:#ffffff">
          <path
             d="m 0,0 h -1.898 c -0.065,0.78 -0.534,1.261 -1.235,1.261 -0.885,0 -1.417,-0.806 -1.417,-2.106 0,-1.3 0.532,-2.106 1.417,-2.106 0.701,0 1.17,0.533 1.222,1.391 H 0 c -0.143,-1.677 -1.339,-2.795 -3.12,-2.795 -2.015,0 -3.328,1.378 -3.328,3.51 0,2.132 1.313,3.51 3.328,3.51 C -1.339,2.665 -0.143,1.547 0,0"
             style="fill:#ffffff;fill-opacity:1;fill-rule:nonzero;stroke:none"
             id="path72" />
        </g>
        <g
           id="g74"
           transform="translate(168.0098,63.3423)"
           style="fill:#ffffff">
          <path
             d="M 0,0 H 2.886 C 2.77,1.001 2.171,1.456 1.443,1.456 0.702,1.456 0.143,1.001 0,0 m 2.756,-2.067 h 1.859 c -0.26,-1.209 -1.404,-2.21 -3.159,-2.21 -2.08,0 -3.289,1.456 -3.289,3.562 0,1.95 1.209,3.458 3.276,3.458 1.521,0 2.639,-0.858 3.055,-2.197 0.144,-0.455 0.208,-0.962 0.208,-1.69 h -4.745 c 0.052,-1.365 0.715,-1.846 1.495,-1.846 0.729,0 1.209,0.39 1.3,0.923"
             style="fill:#ffffff;fill-opacity:1;fill-rule:nonzero;stroke:none"
             id="path76" />
        </g>
        <g
           id="g78"
           transform="translate(180.1523,63.3291)"
           style="fill:#ffffff">
          <path
             d="m 0,0 v -4.056 h -1.82 v 3.874 c 0,1.001 -0.443,1.456 -1.158,1.456 -0.753,0 -1.299,-0.598 -1.299,-1.794 v -3.536 h -1.821 v 6.604 h 1.703 V 1.716 h 0.027 c 0.429,0.585 1.092,0.988 1.936,0.988 C -0.949,2.704 0,1.794 0,0"
             style="fill:#ffffff;fill-opacity:1;fill-rule:nonzero;stroke:none"
             id="path80" />
        </g>
        <g
           id="g82"
           transform="translate(185.2871,60.7031)"
           style="fill:#ffffff">
          <path
             d="m 0,0 v -1.391 c -0.247,-0.078 -0.65,-0.13 -0.962,-0.13 -1.521,0 -2.184,0.611 -2.184,2.145 v 3.198 h -1.066 v 1.352 h 1.066 V 6.89 h 1.82 V 5.174 h 1.261 V 3.822 H -1.326 V 0.949 c 0,-0.728 0.233,-1.014 0.858,-1.014 0.169,0 0.351,0.026 0.468,0.065"
             style="fill:#ffffff;fill-opacity:1;fill-rule:nonzero;stroke:none"
             id="path84" />
        </g>
        <g
           id="g86"
           transform="translate(190.6035,65.9033)"
           style="fill:#ffffff">
          <path
             d="m 0,0 v -1.573 c -0.208,0.039 -0.39,0.065 -0.572,0.065 -1.118,0 -1.716,-0.702 -1.716,-2.002 v -3.12 h -1.82 v 6.604 h 1.677 v -0.936 h 0.026 c 0.442,0.715 1.027,1.04 1.807,1.04 C -0.416,0.078 -0.182,0.052 0,0"
             style="fill:#ffffff;fill-opacity:1;fill-rule:nonzero;stroke:none"
             id="path88" />
        </g>
        <g
           id="g90"
           transform="translate(191.5264,61.8213)"
           style="fill:#ffffff">
          <path
             d="M 0,0 V 4.056 H 1.819 V 0.182 c 0,-1.001 0.443,-1.456 1.158,-1.456 0.753,0 1.3,0.598 1.3,1.794 v 3.536 h 1.82 V -2.548 H 4.394 v 0.832 H 4.368 C 3.938,-2.301 3.275,-2.704 2.431,-2.704 0.949,-2.704 0,-1.794 0,0"
             style="fill:#ffffff;fill-opacity:1;fill-rule:nonzero;stroke:none"
             id="path92" />
        </g>
        <g
           id="g94"
           transform="translate(209.3496,63.3291)"
           style="fill:#ffffff">
          <path
             d="m 0,0 v -4.056 h -1.82 v 3.874 c 0,1.001 -0.404,1.456 -1.04,1.456 -0.781,0 -1.209,-0.689 -1.209,-1.937 V -4.056 H -5.89 v 3.991 c 0,0.845 -0.364,1.339 -1.04,1.339 -0.793,0 -1.209,-0.702 -1.209,-1.937 v -3.393 h -1.82 v 6.604 h 1.716 V 1.794 h 0.026 c 0.482,0.624 1.04,0.91 1.833,0.91 0.923,0 1.6,-0.39 1.963,-1.131 0.494,0.702 1.093,1.131 2.107,1.131 C -0.897,2.704 0,1.794 0,0"
             style="fill:#ffffff;fill-opacity:1;fill-rule:nonzero;stroke:none"
             id="path96" />
        </g>
        <g
           id="g98"
           transform="translate(108.9121,47.5732)"
           style="fill:#ffffff">
          <path
             d="m 0,0 c 0,-1.313 0.559,-2.08 1.378,-2.08 0.871,0 1.43,0.819 1.43,2.08 0,1.261 -0.559,2.08 -1.43,2.08 C 0.559,2.08 0,1.313 0,0 m 4.706,0 c 0,-2.106 -1.066,-3.471 -2.717,-3.471 -0.754,0 -1.469,0.338 -1.872,0.962 H 0.091 v -3.199 h -1.82 v 9.01 H 0.039 V 2.431 h 0.026 c 0.403,0.676 1.131,1.04 1.898,1.04 1.664,0 2.743,-1.365 2.743,-3.471"
             style="fill:#ffffff;fill-opacity:1;fill-rule:nonzero;stroke:none"
             id="path100" />
        </g>
        <g
           id="g102"
           transform="translate(119.0645,50.9014)"
           style="fill:#ffffff">
          <path
             d="m 0,0 v -1.573 c -0.208,0.039 -0.39,0.065 -0.571,0.065 -1.118,0 -1.716,-0.702 -1.716,-2.002 v -3.12 h -1.821 v 6.604 h 1.677 v -0.936 h 0.027 c 0.442,0.715 1.026,1.04 1.806,1.04 C -0.416,0.078 -0.182,0.052 0,0"
             style="fill:#ffffff;fill-opacity:1;fill-rule:nonzero;stroke:none"
             id="path104" />
        </g>
        <g
           id="g106"
           transform="translate(121.5352,47.5732)"
           style="fill:#ffffff">
          <path
             d="m 0,0 c 0,-1.287 0.571,-2.106 1.469,-2.106 0.897,0 1.469,0.819 1.469,2.106 0,1.287 -0.572,2.106 -1.469,2.106 C 0.571,2.106 0,1.287 0,0 m 4.849,0 c 0,-2.145 -1.313,-3.51 -3.38,-3.51 -2.068,0 -3.381,1.365 -3.381,3.51 0,2.145 1.313,3.51 3.381,3.51 2.067,0 3.38,-1.365 3.38,-3.51"
             style="fill:#ffffff;fill-opacity:1;fill-rule:nonzero;stroke:none"
             id="path108" />
        </g>
        <g
           id="g110"
           transform="translate(131.9609,44.271)"
           style="fill:#ffffff">
          <path
             d="m 0,0 -2.223,6.604 h 1.898 l 0.767,-2.6 C 0.715,3.068 0.962,2.106 1.17,1.144 h 0.026 c 0.208,0.962 0.455,1.924 0.728,2.86 l 0.767,2.6 H 4.589 L 2.366,0 Z"
             style="fill:#ffffff;fill-opacity:1;fill-rule:nonzero;stroke:none"
             id="path112" />
        </g>
        <g
           id="g114"
           transform="translate(138.6299,51.6294)"
           style="fill:#ffffff">
          <path
             d="M 0,0 1.001,1.898 H 3.25 L 1.43,0 Z M 2.106,-7.397 C 1.443,-9.256 0.611,-9.841 -1.04,-9.841 c -0.325,0 -0.676,0.039 -0.949,0.104 v 1.456 c 0.182,-0.065 0.428,-0.104 0.702,-0.104 0.728,0 1.209,0.416 1.209,1.066 0,0.247 -0.052,0.455 -0.312,1.195 l -1.872,5.37 h 1.95 l 0.676,-2.21 c 0.273,-0.911 0.52,-1.846 0.728,-2.769 h 0.026 c 0.221,0.923 0.468,1.858 0.767,2.769 l 0.715,2.21 h 1.872 z"
             style="fill:#ffffff;fill-opacity:1;fill-rule:nonzero;stroke:none"
             id="path116" />
        </g>
        <g
           id="g118"
           transform="translate(145.5713,45.727)"
           style="fill:#ffffff">
          <path
             d="m 0,0 v -0.026 h 3.367 v -1.43 H -2.196 V 0.026 L 1.04,3.692 v 0.026 h -3.106 v 1.43 H 3.237 V 3.666 Z"
             style="fill:#ffffff;fill-opacity:1;fill-rule:nonzero;stroke:none"
             id="path120" />
        </g>
        <g
           id="g122"
           transform="translate(154.2432,44.271)"
           style="fill:#ffffff">
          <path
             d="M 0,0 -2.211,3.094 H -2.236 V 0 h -1.821 v 9.256 h 1.821 V 3.939 h 0.025 l 2.133,2.665 H 1.976 L -0.533,3.562 2.249,0 Z"
             style="fill:#ffffff;fill-opacity:1;fill-rule:nonzero;stroke:none"
             id="path124" />
        </g>
        <g
           id="g126"
           transform="translate(157.1816,46.8193)"
           style="fill:#ffffff">
          <path
             d="M 0,0 V 4.056 H 1.819 V 0.182 c 0,-1.001 0.443,-1.456 1.158,-1.456 0.753,0 1.299,0.598 1.299,1.794 V 4.056 H 6.097 V -2.548 H 4.394 v 0.832 H 4.368 C 3.938,-2.301 3.275,-2.704 2.431,-2.704 0.948,-2.704 0,-1.794 0,0"
             style="fill:#ffffff;fill-opacity:1;fill-rule:nonzero;stroke:none"
             id="path128" />
        </g>
        <g
           id="g130"
           transform="translate(175.0049,48.3271)"
           style="fill:#ffffff">
          <path
             d="m 0,0 v -4.056 h -1.82 v 3.874 c 0,1.001 -0.404,1.456 -1.04,1.456 -0.781,0 -1.209,-0.689 -1.209,-1.937 V -4.056 H -5.89 v 3.991 c 0,0.845 -0.364,1.339 -1.04,1.339 -0.793,0 -1.209,-0.702 -1.209,-1.937 v -3.393 h -1.82 v 6.604 h 1.717 V 1.794 h 0.025 c 0.482,0.624 1.04,0.91 1.833,0.91 0.923,0 1.6,-0.39 1.963,-1.131 0.494,0.702 1.093,1.131 2.107,1.131 C -0.897,2.704 0,1.794 0,0"
             style="fill:#ffffff;fill-opacity:1;fill-rule:nonzero;stroke:none"
             id="path132" />
        </g>
        <g
           id="g134"
           transform="translate(108.9121,32.5713)"
           style="fill:#ffffff">
          <path
             d="m 0,0 c 0,-1.312 0.559,-2.08 1.378,-2.08 0.871,0 1.43,0.819 1.43,2.08 0,1.262 -0.559,2.08 -1.43,2.08 C 0.559,2.08 0,1.313 0,0 M 0.117,2.51 C 0.52,3.134 1.235,3.472 1.989,3.472 3.64,3.472 4.706,2.106 4.706,0 c 0,-2.105 -1.079,-3.471 -2.743,-3.471 -0.767,0 -1.495,0.365 -1.898,1.04 H 0.039 v -0.871 h -1.768 v 9.256 h 1.82 V 2.51 Z"
             style="fill:#ffffff;fill-opacity:1;fill-rule:nonzero;stroke:none"
             id="path136" />
        </g>
        <path
           d="m 114.956,35.874 h 1.821 V 29.27 h -1.821 z m 0,2.651 h 1.821 v -1.56 h -1.821 z"
           style="fill:#ffffff;fill-opacity:1;fill-rule:nonzero;stroke:none"
           id="path138" />
        <g
           id="g140"
           transform="translate(120.0273,32.5713)"
           style="fill:#ffffff">
          <path
             d="m 0,0 c 0,-1.287 0.571,-2.105 1.468,-2.105 0.898,0 1.47,0.818 1.47,2.105 0,1.287 -0.572,2.106 -1.47,2.106 C 0.571,2.106 0,1.287 0,0 m 4.849,0 c 0,-2.145 -1.313,-3.51 -3.381,-3.51 -2.067,0 -3.38,1.365 -3.38,3.51 0,2.146 1.313,3.511 3.38,3.511 2.068,0 3.381,-1.365 3.381,-3.511"
             style="fill:#ffffff;fill-opacity:1;fill-rule:nonzero;stroke:none"
             id="path142" />
        </g>
        <g
           id="g144"
           transform="translate(136.1729,33.3262)"
           style="fill:#ffffff">
          <path
             d="m 0,0 v -4.057 h -1.819 v 3.874 c 0,1.001 -0.404,1.456 -1.04,1.456 -0.781,0 -1.209,-0.688 -1.209,-1.936 v -3.394 h -1.821 v 3.992 c 0,0.844 -0.364,1.338 -1.04,1.338 -0.793,0 -1.209,-0.702 -1.209,-1.936 v -3.394 h -1.82 v 6.605 h 1.716 V 1.794 h 0.026 c 0.481,0.624 1.04,0.909 1.833,0.909 0.923,0 1.599,-0.39 1.963,-1.131 0.494,0.702 1.092,1.131 2.107,1.131 C -0.896,2.703 0,1.794 0,0"
             style="fill:#ffffff;fill-opacity:1;fill-rule:nonzero;stroke:none"
             id="path146" />
        </g>
        <g
           id="g148"
           transform="translate(139.3574,32.5713)"
           style="fill:#ffffff">
          <path
             d="m 0,0 c 0,-1.287 0.572,-2.105 1.469,-2.105 0.897,0 1.469,0.818 1.469,2.105 0,1.287 -0.572,2.106 -1.469,2.106 C 0.572,2.106 0,1.287 0,0 m 4.85,0 c 0,-2.145 -1.314,-3.51 -3.381,-3.51 -2.067,0 -3.38,1.365 -3.38,3.51 0,2.146 1.313,3.511 3.38,3.511 C 3.536,3.511 4.85,2.146 4.85,0"
             style="fill:#ffffff;fill-opacity:1;fill-rule:nonzero;stroke:none"
             id="path150" />
        </g>
        <path
           d="m 145.546,38.525 h 1.819 v -9.256 h -1.819 z"
           style="fill:#ffffff;fill-opacity:1;fill-rule:nonzero;stroke:none"
           id="path152" />
        <g
           id="g154"
           transform="translate(150.5371,33.3389)"
           style="fill:#ffffff">
          <path
             d="M 0,0 H 2.887 C 2.77,1.001 2.171,1.456 1.443,1.456 0.702,1.456 0.144,1.001 0,0 m 2.757,-2.067 h 1.858 c -0.26,-1.209 -1.404,-2.21 -3.159,-2.21 -2.08,0 -3.289,1.456 -3.289,3.562 0,1.95 1.209,3.458 3.276,3.458 1.522,0 2.639,-0.858 3.055,-2.197 0.144,-0.455 0.208,-0.962 0.208,-1.691 h -4.745 c 0.053,-1.364 0.716,-1.845 1.495,-1.845 0.729,0 1.209,0.389 1.301,0.923"
             style="fill:#ffffff;fill-opacity:1;fill-rule:nonzero;stroke:none"
             id="path156" />
        </g>
        <g
           id="g158"
           transform="translate(160.6387,29.2695)"
           style="fill:#ffffff">
          <path
             d="M 0,0 -2.21,3.094 H -2.236 V 0 h -1.821 v 9.256 h 1.821 V 3.939 h 0.026 l 2.132,2.665 H 1.976 L -0.533,3.563 2.249,0 Z"
             style="fill:#ffffff;fill-opacity:1;fill-rule:nonzero;stroke:none"
             id="path160" />
        </g>
        <g
           id="g162"
           transform="translate(163.5771,31.8174)"
           style="fill:#ffffff">
          <path
             d="M 0,0 V 4.057 H 1.819 V 0.183 c 0,-1.001 0.443,-1.456 1.158,-1.456 0.753,0 1.3,0.597 1.3,1.794 v 3.536 h 1.82 V -2.548 H 4.394 v 0.832 H 4.368 C 3.938,-2.301 3.275,-2.704 2.431,-2.704 0.949,-2.704 0,-1.794 0,0"
             style="fill:#ffffff;fill-opacity:1;fill-rule:nonzero;stroke:none"
             id="path164" />
        </g>
        <path
           d="m 171.441,38.525 h 1.82 v -9.256 h -1.82 z"
           style="fill:#ffffff;fill-opacity:1;fill-rule:nonzero;stroke:none"
           id="path166" />
      </g>
    </g>
  </g>
</svg>
